<svg t="1614406609856" class="icon" viewBox="0 0 1218 1024" version="1.1" xmlns="http://www.w3.org/2000/svg" p-id="4136" width="200" height="200"><path d="M357.810799 826.255991V502.93429h-31.102747q-35.005891 46.239328-101.128131 61.593505v43.614566c33.70031-5.127125 59.635133-15.394976 77.79087-28.23319v246.34682z m679.337327-454.233398c-171.126313-92.383457-383.745622-33.360315-477.094666 135.998023a346.468564 346.468564 0 0 0 137.426003 472.185137c121.867829 66.72063 272.254443 56.452779 381.16166-25.662827 10.363049-7.683888 12.960612-25.649227 5.181524-35.917078s-25.934823-12.824614-36.297872-5.140725c-93.349043 69.290993-220.398397 79.558844-324.110489 23.119664-145.20509-76.974881-194.477173-256.60107-116.686304-400.296582s259.293831-195.021165 404.49892-115.421522c145.19149 76.961281 197.047536 256.60107 116.672705 400.282982-7.779087 12.838213-2.597562 28.23319 10.363049 35.930678s28.559585 2.570363 36.297872-10.267851C1267.909572 679.990117 1208.274438 469.587575 1037.148126 372.076992zM557.469498 959.683652H129.646916c-44.076959 0-77.790869-33.360315-77.79087-76.988481V390.028731h505.613452c15.558174 0 25.934823-10.254251 25.934823-25.649227s-10.376649-25.662827-25.934823-25.662827H51.856046V189.89404c0-43.628166 33.71391-76.988481 77.79087-76.988481h181.502962v46.239328c0 15.381376 10.363049 25.649227 25.921223 25.649227s25.934823-10.267851 25.934823-25.649227v-46.239328h337.071101v46.239328c0 15.381376 10.376649 25.649227 25.934823 25.649227s25.921223-10.267851 25.921223-25.649227v-46.239328h207.424185c44.090559 0 77.790869 33.360315 77.79087 76.988481v92.369857c0 15.394976 10.376649 25.662827 25.921223 25.662827s25.934823-10.267851 25.934823-25.662827v-92.369857c0-71.847756-57.11917-128.314135-129.646916-128.314135H751.933071V25.662827C751.933071 10.267851 741.556422 0 726.011848 0s-25.934823 10.267851-25.934823 25.662827v35.917078H363.005924V25.662827C363.005924 10.267851 352.629275 0 337.071101 0s-25.921223 10.267851-25.921223 25.662827v35.917078H129.646916C57.037571 61.579905 0 118.046284 0 189.89404v692.801131c0 71.847756 57.037571 128.314135 129.646916 128.314135h427.822582c15.558174 0 25.934823-10.267851 25.934823-25.676427s-10.376649-25.649227-25.934823-25.649227z m536.716199-236.078969l-212.61931-46.239328V446.481511c0-15.394976-10.363049-25.649227-25.921223-25.649228s-25.921223 10.254251-25.921224 25.649228v271.996046l254.098707 56.43918c12.960612 2.570363 28.559585-7.697488 31.116348-20.522102s-7.779087-28.21959-20.753298-30.789952z" p-id="4137" fill="#000000"></path></svg>